<?xml version="1.0" encoding="UTF-8" standalone="no"?>
<svg
   xmlns:dc="http://purl.org/dc/elements/1.1/"
   xmlns:cc="http://creativecommons.org/ns#"
   xmlns:rdf="http://www.w3.org/1999/02/22-rdf-syntax-ns#"
   xmlns:svg="http://www.w3.org/2000/svg"
   xmlns="http://www.w3.org/2000/svg"
   xmlns:sodipodi="http://sodipodi.sourceforge.net/DTD/sodipodi-0.dtd"
   xmlns:inkscape="http://www.inkscape.org/namespaces/inkscape"
   version="1.0"
   width="1280pt"
   height="1245pt"
   viewBox="0 0 1280 1245"
   preserveAspectRatio="xMidYMid meet"
   id="svg"
   inkscape:version="0.48.5 r10040"
   sodipodi:docname="cornell.svg">
  <defs
     id="defs100" />
  <sodipodi:namedview
     pagecolor="#ffffff"
     bordercolor="#666666"
     borderopacity="1"
     objecttolerance="10"
     gridtolerance="10"
     guidetolerance="10"
     inkscape:pageopacity="0"
     inkscape:pageshadow="2"
     inkscape:window-width="1849"
     inkscape:window-height="1056"
     id="namedview98"
     showgrid="false"
     inkscape:zoom="0.15164659"
     inkscape:cx="800"
     inkscape:cy="778.125"
     inkscape:window-x="63"
     inkscape:window-y="-8"
     inkscape:window-maximized="1"
     inkscape:current-layer="svg" />
  <metadata
     id="metadata4">
Created by potrace 1.13, written by Peter Selinger 2001-2015
<rdf:RDF>
  <cc:Work
     rdf:about="">
    <dc:format>image/svg+xml</dc:format>
    <dc:type
       rdf:resource="http://purl.org/dc/dcmitype/StillImage" />
    <dc:title></dc:title>
  </cc:Work>
</rdf:RDF>
</metadata>
  <g
     transform="matrix(0.1,0,0,-0.1,0,1245)"
     id="g6"
     style="fill:#800000">
    <path
       d="M 6092,12229 C 5036,12172 4003,11830 3115,11245 1723,10327 761,8854 491,7225 425,6828 406,6555 413,6116 422,5597 476,5190 601,4710 1220,2334 3259,552 5690,261 c 269,-33 418,-41 724,-41 312,0 475,9 736,40 2557,308 4659,2254 5164,4780 78,389 106,650 113,1072 11,659 -56,1175 -232,1788 -357,1238 -1128,2351 -2167,3130 -315,236 -590,405 -948,584 -922,459 -1955,671 -2988,615 z m 813,-289 c 762,-71 1433,-261 2095,-596 1349,-680 2384,-1877 2860,-3304 200,-598 291,-1162 292,-1800 0,-375 -20,-633 -78,-975 -167,-994 -598,-1925 -1264,-2726 -134,-160 -539,-565 -699,-699 C 9180,1067 8110,623 6910,514 c -251,-23 -729,-23 -980,0 -1204,110 -2267,551 -3205,1330 -156,130 -563,537 -695,695 -750,903 -1195,1951 -1315,3094 -210,2010 655,3974 2290,5197 436,326 987,619 1515,807 468,166 1014,277 1545,313 157,10 687,4 840,-10 z"
       id="path8"
       style="fill:#800000"
       inkscape:connector-curvature="0" />
    <path
       d="m 6188,11723 c -46,-5 -45,17 -18,-291 21,-249 19,-306 -14,-355 -56,-84 -198,-89 -253,-11 -36,52 -44,95 -66,363 l -22,263 -75,-6 c -41,-4 -77,-9 -79,-12 -9,-9 41,-557 55,-603 43,-145 175,-211 363,-182 145,23 225,80 255,182 20,68 20,66 -6,387 l -22,272 -40,-2 c -23,-1 -58,-3 -78,-5 z"
       id="path10"
       style="fill:#800000"
       inkscape:connector-curvature="0" />
    <path
       d="m 6856,11709 c -12,-38 -106,-783 -99,-790 8,-7 143,-24 143,-17 0,19 80,581 82,584 2,2 53,-139 114,-314 l 109,-317 94,-12 c 52,-7 96,-12 97,-10 2,2 27,180 57,397 47,349 51,396 38,401 -9,4 -43,10 -76,13 l -61,7 -39,-295 c -21,-163 -42,-293 -45,-289 -4,5 -54,143 -110,308 -57,165 -109,305 -117,311 -7,6 -41,15 -76,18 -34,4 -72,10 -84,13 -14,3 -24,0 -27,-8 z"
       id="path12"
       style="fill:#800000"
       inkscape:connector-curvature="0" />
    <path
       d="m 7887,11123 c -65,-208 -118,-383 -117,-389 0,-9 141,-58 146,-51 0,1 54,172 119,380 68,218 114,382 109,386 -5,5 -34,17 -64,26 -30,10 -60,20 -65,22 -6,2 -63,-167 -128,-374 z"
       id="path14"
       style="fill:#800000"
       inkscape:connector-curvature="0" />
    <path
       d="m 4438,11353 c -38,-14 -68,-29 -68,-34 0,-13 262,-733 270,-742 5,-6 421,134 438,148 5,4 -39,115 -47,115 -3,0 -69,-23 -145,-50 -76,-28 -139,-49 -141,-48 -1,2 -53,146 -116,320 -63,175 -116,318 -119,317 -3,0 -35,-12 -72,-26 z"
       id="path16"
       style="fill:#800000"
       inkscape:connector-curvature="0" />
    <path
       d="m 8516,10895 c -32,-223 -56,-413 -54,-422 2,-8 39,-35 82,-59 l 80,-43 303,296 c 167,163 303,299 303,302 0,4 -31,22 -69,41 l -70,33 -228,-233 c -169,-173 -229,-228 -231,-214 -2,16 79,549 93,611 5,20 -4,27 -65,58 -38,19 -73,35 -78,35 -5,0 -35,-182 -66,-405 z"
       id="path18"
       style="fill:#800000"
       inkscape:connector-curvature="0" />
    <path
       d="m 3608,10952 -67,-38 196,-349 c 108,-193 197,-351 199,-353 2,-3 393,214 404,225 2,2 -8,29 -24,58 l -28,54 -32,-16 c -17,-9 -78,-42 -135,-75 -79,-45 -106,-56 -112,-46 -5,7 -80,140 -166,295 -87,155 -160,282 -163,282 -3,1 -35,-16 -72,-37 z"
       id="path20"
       style="fill:#800000"
       inkscape:connector-curvature="0" />
    <path
       d="m 6115,10734 c -22,-2 -92,-9 -155,-15 -63,-6 -193,-24 -289,-40 C 4257,10443 3036,9542 2385,8255 1608,6720 1778,4872 2821,3499 c 244,-321 558,-634 888,-883 954,-723 2176,-1032 3376,-856 737,108 1453,408 2048,858 238,179 487,411 690,642 904,1029 1288,2423 1041,3780 -220,1208 -936,2284 -1970,2963 -590,387 -1238,622 -1969,713 -123,15 -705,28 -810,18 z m 840,-303 c 979,-134 1820,-555 2500,-1252 983,-1007 1396,-2410 1120,-3794 -320,-1598 -1555,-2882 -3150,-3275 -350,-86 -605,-115 -1015,-115 -318,1 -413,8 -680,51 -674,109 -1341,398 -1887,818 -1299,1000 -1905,2632 -1573,4232 72,343 180,657 336,975 230,468 492,830 862,1190 329,321 691,576 1097,774 489,238 922,357 1530,419 22,2 191,2 375,1 270,-3 364,-7 485,-24 z"
       id="path22"
       style="fill:#800000"
       inkscape:connector-curvature="0" />
    <path
       d="m 3543,7228 c 3,-2036 3,-2043 24,-2173 107,-646 399,-1191 928,-1733 246,-252 456,-433 752,-644 333,-239 768,-492 1085,-632 l 86,-38 113,51 c 353,161 826,447 1183,715 594,446 1020,919 1276,1418 175,341 263,642 289,993 7,92 11,822 11,2113 l 0,1972 -2875,0 -2876,0 4,-2042 z m 5457,722 0,-1040 -2590,0 -2590,0 0,1040 0,1040 2590,0 2590,0 0,-1040 z m -2700,-1496 0,-176 -22,6 c -56,17 -299,18 -458,2 -381,-37 -532,-46 -791,-46 l -269,0 0,-190 0,-190 -135,0 -135,0 0,-165 0,-165 135,0 135,0 0,-220 0,-220 -135,0 -135,0 0,-170 0,-170 135,0 135,0 0,-180 0,-180 -135,0 -135,0 0,-165 0,-165 135,0 135,0 0,-230 0,-230 290,0 c 245,0 688,19 1043,45 l 78,6 65,-62 64,-62 0,-574 c 0,-315 -3,-573 -7,-573 -14,0 -260,134 -411,224 -1086,648 -1794,1460 -1996,2287 -58,240 -59,256 -63,1027 l -5,712 1241,0 1241,0 0,-176 z m 2707,-556 c -5,-801 -6,-828 -67,-1065 -107,-413 -359,-842 -722,-1230 -340,-362 -785,-712 -1289,-1011 -157,-93 -376,-212 -390,-212 -5,0 -9,225 -9,578 l 0,578 55,54 56,55 97,-3 c 53,-1 243,-11 422,-22 192,-12 445,-20 618,-20 l 292,0 0,230 0,230 135,0 135,0 0,165 0,165 -135,0 -135,0 0,180 0,180 135,0 135,0 0,170 0,170 -135,0 -135,0 0,220 0,220 135,0 135,0 0,165 0,165 -135,0 -135,0 0,189 0,189 -337,5 c -258,3 -390,10 -558,27 -221,24 -504,32 -597,18 l -48,-8 0,175 0,175 1241,0 1241,0 -5,-732 z m -2744,99 37,-16 0,-1042 0,-1041 -27,7 c -16,4 -46,11 -68,16 -37,7 -365,-7 -710,-31 -77,-5 -211,-10 -297,-10 l -158,0 0,1040 0,1040 138,0 c 127,0 510,28 686,50 113,14 354,6 399,-13 z m 687,13 c 218,-24 576,-50 702,-50 l 138,0 0,-1040 0,-1040 -157,0 c -87,0 -221,5 -298,10 -345,24 -673,38 -710,31 -22,-5 -52,-12 -67,-16 l -28,-7 0,1041 c 0,1019 0,1041 19,1051 56,29 238,39 401,20 z"
       id="path24"
       style="fill:#800000"
       inkscape:connector-curvature="0" />
    <path
       d="m 6912,8273 c 3,-578 3,-589 25,-641 31,-76 94,-153 176,-216 40,-29 198,-132 352,-227 l 280,-172 75,40 c 124,66 368,211 482,285 120,78 220,176 258,254 l 25,49 3,608 3,607 -841,0 -841,0 3,-587 z m 1398,77 c 0,-126 -2,-230 -5,-230 -3,0 -129,83 -281,184 l -277,184 -276,-184 -276,-184 -3,217 c -1,120 0,223 2,230 4,10 120,13 561,13 l 555,0 0,-230 z m -256,-345 256,-170 0,-53 c 0,-69 -19,-102 -92,-157 -48,-36 -260,-167 -418,-257 l -46,-26 -219,135 c -315,194 -348,224 -343,316 l 3,47 275,184 c 275,184 275,184 301,167 15,-9 142,-92 283,-186 z"
       id="path26"
       style="fill:#800000"
       inkscape:connector-curvature="0" />
    <path
       d="m 4242,8262 3,-588 37,-76 c 28,-56 56,-92 106,-140 65,-61 116,-94 549,-362 l 141,-87 214,122 c 398,227 530,327 594,450 l 29,54 3,608 3,607 -841,0 -841,0 3,-588 z m 1398,188 0,-120 -560,0 -560,0 0,120 0,120 560,0 560,0 0,-120 z m 0,-575 0,-165 -41,-45 c -23,-25 -94,-78 -158,-119 -132,-83 -344,-206 -356,-206 -24,0 -447,272 -500,321 l -60,57 -3,161 -3,161 560,0 561,0 0,-165 z"
       id="path28"
       style="fill:#800000"
       inkscape:connector-curvature="0" />
    <path
       d="m 5810,5714 c -74,-7 -219,-16 -322,-19 l -188,-7 0,-74 0,-73 148,4 c 81,3 245,13 365,22 l 217,16 0,74 0,73 -42,-1 c -24,-1 -104,-8 -178,-15 z"
       id="path30"
       style="fill:#800000"
       inkscape:connector-curvature="0" />
    <path
       d="m 5890,5270 c -30,-5 -175,-14 -322,-21 l -268,-13 0,-74 0,-73 158,6 c 86,3 250,13 365,22 l 207,17 0,73 0,73 -42,-1 c -24,-1 -68,-5 -98,-9 z"
       id="path32"
       style="fill:#800000"
       inkscape:connector-curvature="0" />
    <path
       d="m 5835,4815 c -71,-7 -221,-16 -332,-20 l -203,-8 0,-74 0,-73 168,5 c 151,6 284,14 490,32 l 72,6 0,73 0,74 -32,-1 c -18,-1 -91,-7 -163,-14 z"
       id="path34"
       style="fill:#800000"
       inkscape:connector-curvature="0" />
    <path
       d="m 5845,4364 c -66,-7 -216,-16 -332,-20 l -213,-7 0,-74 0,-75 188,7 c 103,3 258,13 345,21 86,8 166,14 177,14 18,0 20,7 20,75 l 0,75 -32,-1 c -18,-1 -87,-8 -153,-15 z"
       id="path36"
       style="fill:#800000"
       inkscape:connector-curvature="0" />
    <path
       d="m 6790,5657 0,-74 118,-12 c 150,-15 412,-30 525,-31 l 87,0 2,60 c 0,33 1,66 2,73 1,9 -47,14 -194,18 -176,6 -383,20 -497,35 l -43,5 0,-74 z"
       id="path38"
       style="fill:#800000"
       inkscape:connector-curvature="0" />
    <path
       d="m 6790,5203 c 0,-52 4,-73 13,-73 6,0 80,-7 162,-15 83,-8 241,-17 352,-21 l 201,-7 4,69 c 2,38 2,72 0,77 -2,4 -68,7 -148,7 -80,0 -227,7 -327,15 -100,8 -199,16 -219,18 l -38,3 0,-73 z"
       id="path40"
       style="fill:#800000"
       inkscape:connector-curvature="0" />
    <path
       d="m 6790,4750 c 0,-38 3,-70 8,-70 4,0 75,-7 157,-15 83,-8 243,-18 358,-21 l 207,-7 0,76 0,77 -162,0 c -90,0 -230,7 -313,15 -82,8 -174,15 -202,15 l -53,0 0,-70 z"
       id="path42"
       style="fill:#800000"
       inkscape:connector-curvature="0" />
    <path
       d="m 6790,4300 c 0,-38 1,-70 3,-70 134,-16 360,-32 518,-37 l 206,-6 6,69 c 3,47 1,71 -6,76 -7,4 -84,8 -172,8 -88,0 -227,7 -310,15 -82,8 -171,15 -197,15 l -48,0 0,-70 z"
       id="path44"
       style="fill:#800000"
       inkscape:connector-curvature="0" />
    <path
       d="m 9381,10398 c -133,-170 -244,-315 -246,-321 -2,-7 78,-76 178,-154 l 182,-142 37,42 c 21,23 38,47 38,53 0,7 -54,53 -120,104 -119,93 -120,93 -102,116 92,121 118,153 122,153 3,0 54,-38 115,-85 l 109,-86 28,34 c 57,66 59,59 -62,154 -71,56 -107,91 -101,98 4,6 32,41 60,79 l 53,67 26,-19 c 15,-11 70,-54 122,-95 l 95,-76 37,43 c 21,23 38,47 38,52 0,8 -253,211 -350,282 -14,10 -49,-30 -259,-299 z"
       id="path46"
       style="fill:#800000"
       inkscape:connector-curvature="0" />
    <path
       d="m 2929,10479 c -96,-78 -175,-144 -176,-148 -2,-3 111,-146 251,-318 l 253,-311 154,125 c 84,68 166,135 182,149 l 29,24 -38,50 c -23,30 -42,46 -48,41 -6,-4 -59,-47 -118,-94 -58,-48 -110,-87 -115,-87 -7,0 -86,92 -135,157 -7,8 24,39 96,99 58,48 106,90 106,94 0,11 -64,90 -73,90 -5,0 -56,-39 -114,-86 -57,-48 -108,-83 -113,-78 -4,5 -33,40 -64,77 l -55,68 32,28 c 18,15 68,56 112,91 44,35 84,67 89,71 9,8 -60,99 -74,99 -4,0 -86,-63 -181,-141 z"
       id="path48"
       style="fill:#800000"
       inkscape:connector-curvature="0" />
    <path
       d="m 10095,9828 c -143,-126 -277,-244 -297,-261 l -37,-32 53,-60 53,-59 103,89 c 56,50 113,99 127,109 l 26,20 29,-35 c 51,-60 49,-69 -36,-232 l -77,-147 57,-65 c 31,-36 58,-65 60,-65 3,0 43,78 90,173 67,134 85,179 82,205 -3,26 -1,31 11,26 116,-50 178,-39 254,45 98,108 65,210 -145,444 -39,42 -75,77 -82,76 -6,0 -128,-104 -271,-231 z m 339,-29 c 60,-80 63,-122 11,-168 -39,-34 -71,-39 -113,-17 -32,17 -118,103 -110,111 26,26 154,135 160,135 3,0 27,-27 52,-61 z"
       id="path50"
       style="fill:#800000"
       inkscape:connector-curvature="0" />
    <path
       d="m 2301,9893 c -42,-53 -43,-55 -25,-72 11,-10 113,-95 227,-190 115,-95 207,-174 205,-176 -1,-1 -149,31 -327,71 -178,41 -324,74 -325,72 -1,-2 -28,-34 -60,-72 -31,-37 -56,-72 -54,-77 4,-11 605,-509 615,-509 10,0 88,97 88,110 0,5 -100,93 -222,195 -123,102 -223,187 -223,189 0,2 26,-2 58,-9 463,-107 595,-135 601,-128 4,4 31,37 61,71 38,46 51,68 44,77 -13,20 -602,505 -611,504 -5,0 -28,-25 -52,-56 z"
       id="path52"
       style="fill:#800000"
       inkscape:connector-curvature="0" />
    <path
       d="m 10866,9154 c -126,-46 -164,-131 -140,-316 15,-114 8,-157 -29,-183 -79,-55 -190,47 -212,196 l -7,47 -56,-25 c -32,-14 -61,-29 -66,-33 -11,-11 19,-102 56,-170 47,-84 86,-128 142,-160 126,-73 297,-4 336,135 11,38 11,64 2,135 -13,97 -15,160 -6,185 9,21 56,45 92,45 16,0 42,-10 57,-22 30,-23 85,-130 85,-165 0,-12 4,-24 9,-27 8,-5 121,39 121,47 0,2 -9,30 -20,62 -71,206 -214,304 -364,249 z"
       id="path54"
       style="fill:#800000"
       inkscape:connector-curvature="0" />
    <path
       d="m 1654,8915 c -30,-15 -64,-43 -86,-72 -51,-68 -182,-313 -172,-322 14,-13 692,-371 701,-371 15,0 78,129 67,139 -5,5 -71,41 -146,81 l -137,73 20,38 c 37,73 48,76 235,53 l 164,-20 40,77 40,77 -37,6 c -21,3 -104,13 -185,21 -140,15 -189,13 -215,-7 -8,-7 -10,1 -6,30 12,86 -43,168 -133,202 -70,26 -89,25 -150,-5 z m 112,-161 c 71,-34 81,-84 34,-181 -16,-35 -32,-63 -35,-63 -14,0 -185,92 -185,100 0,19 55,102 86,129 40,35 53,37 100,15 z"
       id="path56"
       style="fill:#800000"
       inkscape:connector-curvature="0" />
    <path
       d="m 11104,8227 -371,-152 29,-69 c 15,-38 30,-71 32,-73 3,-3 735,293 743,300 5,5 -50,147 -57,147 -3,-1 -172,-69 -376,-153 z"
       id="path58"
       style="fill:#800000"
       inkscape:connector-curvature="0" />
    <path
       d="m 1324,7959 c -104,-24 -201,-116 -246,-234 -19,-49 -23,-80 -23,-165 0,-91 3,-112 24,-155 67,-136 243,-229 431,-228 148,0 254,60 318,181 119,223 52,453 -161,552 -119,56 -237,72 -343,49 z m 201,-171 c 147,-37 247,-151 231,-260 -9,-60 -44,-117 -93,-152 -113,-79 -368,-19 -451,107 -38,57 -42,146 -10,207 55,103 169,137 323,98 z"
       id="path60"
       style="fill:#800000"
       inkscape:connector-curvature="0" />
    <path
       d="m 11623,7817 c -23,-7 -44,-15 -48,-18 -3,-4 6,-53 20,-109 16,-63 22,-105 16,-109 -5,-3 -152,-42 -328,-85 -175,-43 -319,-80 -320,-80 -1,-1 6,-35 15,-76 15,-64 21,-75 37,-72 11,2 157,37 325,78 167,41 309,73 315,70 6,-2 22,-52 36,-110 19,-82 27,-105 39,-101 8,2 36,9 63,16 36,9 46,15 43,28 -3,9 -33,126 -66,261 -82,331 -79,320 -93,319 -7,-1 -31,-6 -54,-12 z"
       id="path62"
       style="fill:#800000"
       inkscape:connector-curvature="0" />
    <path
       d="m 911,6827 c -70,-183 -37,-393 79,-501 84,-79 187,-116 320,-116 186,0 309,84 372,255 19,51 22,80 23,192 0,72 -2,133 -5,136 -3,2 -33,7 -66,11 l -62,7 6,-111 c 4,-90 2,-118 -13,-156 -41,-107 -129,-164 -255,-164 -41,0 -92,5 -112,10 -59,17 -130,71 -163,124 -27,45 -30,57 -30,135 1,68 5,95 23,130 24,48 19,61 -24,61 -12,0 -35,3 -53,6 -26,6 -32,3 -40,-19 z"
       id="path64"
       style="fill:#800000"
       inkscape:connector-curvature="0" />
    <path
       d="m 11661,6693 -233,-157 -117,-7 c -64,-4 -136,-8 -160,-8 l -43,-1 4,-74 c 2,-41 6,-78 10,-81 3,-4 75,-3 160,2 l 153,9 253,-129 252,-129 0,49 c 0,120 8,111 -181,204 -93,46 -169,86 -169,89 0,3 72,50 160,105 l 160,100 -1,50 c 0,28 -4,69 -7,93 l -7,43 -234,-158 z"
       id="path66"
       style="fill:#800000"
       inkscape:connector-curvature="0" />
    <path
       d="m 10995,5138 c -28,-85 -124,-422 -121,-425 2,-2 93,-32 202,-67 l 199,-63 8,46 c 25,147 77,228 152,237 27,3 51,-1 74,-13 96,-50 106,-164 25,-284 -19,-29 -31,-55 -27,-59 10,-9 102,-40 118,-40 13,0 52,83 80,168 23,72 22,178 -3,234 -58,132 -248,200 -373,135 -50,-26 -103,-97 -120,-160 -22,-82 -15,-78 -97,-52 -41,13 -76,26 -79,28 -2,3 14,69 37,147 23,78 38,145 33,150 -10,9 -72,30 -90,30 -7,0 -15,-6 -18,-12 z"
       id="path68"
       style="fill:#800000"
       inkscape:connector-curvature="0" />
    <path
       d="m 1428,5022 c -201,-59 -369,-110 -373,-114 -7,-7 23,-127 35,-141 4,-4 80,13 170,38 89,26 166,43 170,39 4,-5 22,-61 40,-124 18,-63 34,-118 36,-122 3,-4 26,0 52,9 26,8 52,16 59,18 7,3 -1,45 -27,134 l -38,131 67,20 c 37,11 81,23 98,26 l 30,6 38,-134 c 20,-73 38,-134 39,-135 1,-1 29,5 63,15 l 60,17 -61,212 c -45,157 -65,213 -76,212 -8,0 -180,-48 -382,-107 z"
       id="path70"
       style="fill:#800000"
       inkscape:connector-curvature="0" />
    <path
       d="m 1770,4355 c -185,-52 -307,-156 -352,-297 -22,-72 -23,-106 -3,-182 67,-258 274,-380 510,-302 197,66 326,214 325,375 -1,156 -105,328 -234,387 -71,32 -170,40 -246,19 z m 231,-178 c 92,-49 135,-178 90,-271 -75,-153 -326,-245 -450,-163 -75,50 -114,150 -92,233 21,76 125,170 231,207 70,25 168,22 221,-6 z"
       id="path72"
       style="fill:#800000"
       inkscape:connector-curvature="0" />
    <path
       d="m 10708,4303 c -37,-40 -72,-101 -91,-157 -49,-143 16,-280 187,-394 165,-111 339,-151 440,-102 118,57 183,238 126,354 -36,75 -140,147 -240,166 -95,18 -190,-34 -236,-129 -19,-38 -24,-111 -11,-148 14,-38 -10,-27 -72,35 -102,99 -103,183 -4,293 20,22 34,41 32,43 -20,16 -93,66 -99,66 -3,0 -18,-12 -32,-27 z m 461,-319 c 91,-46 119,-128 62,-185 -53,-52 -155,-34 -226,41 -43,45 -42,101 3,141 42,37 90,38 161,3 z"
       id="path74"
       style="fill:#800000"
       inkscape:connector-curvature="0" />
    <path
       d="m 10292,3530 c -57,-26 -134,-107 -167,-176 -31,-65 -36,-144 -12,-189 20,-40 75,-91 110,-104 40,-15 112,-14 152,3 l 35,15 0,-60 c 0,-122 66,-202 183,-224 84,-16 187,42 256,145 58,87 76,156 61,222 -15,59 -64,119 -123,149 -48,25 -129,27 -182,5 -21,-9 -39,-16 -41,-16 -2,0 -4,22 -4,48 0,32 -9,66 -26,100 -47,94 -144,127 -242,82 z m 117,-156 c 33,-27 54,-84 45,-119 -7,-30 -73,-65 -121,-65 -97,0 -125,112 -47,185 36,33 83,33 123,-1 z m 326,-225 c 30,-26 35,-37 35,-74 0,-68 -59,-125 -131,-125 -23,0 -41,10 -71,39 -37,38 -39,43 -36,93 3,50 5,54 43,75 59,34 115,31 160,-8 z"
       id="path76"
       style="fill:#800000"
       inkscape:connector-curvature="0" />
    <path
       d="m 2330,3335 c -242,-194 -284,-236 -306,-311 -20,-68 -13,-118 28,-203 37,-76 137,-182 199,-211 66,-30 152,-27 220,8 58,28 479,358 479,374 0,12 -83,117 -92,117 -4,1 -98,-71 -210,-159 -224,-177 -270,-205 -334,-197 -107,12 -179,145 -125,232 30,50 60,76 259,234 106,84 192,157 192,162 0,15 -83,118 -95,118 -5,-1 -102,-74 -215,-164 z"
       id="path78"
       style="fill:#800000"
       inkscape:connector-curvature="0" />
    <path
       d="m 9736,2901 -49,-49 -17,-149 c -10,-81 -15,-151 -11,-154 3,-4 31,-10 63,-13 65,-8 62,-12 73,98 l 7,69 222,-222 221,-221 54,54 54,55 -71,78 c -39,43 -167,174 -284,291 l -213,212 -49,-49 z"
       id="path80"
       style="fill:#800000"
       inkscape:connector-curvature="0" />
    <path
       d="m 2970,2432 c -134,-163 -250,-304 -257,-313 -13,-15 -8,-22 42,-60 30,-24 59,-44 64,-44 4,0 91,101 192,224 100,123 184,220 186,215 2,-5 -28,-152 -67,-328 l -70,-318 23,-18 c 12,-10 44,-36 72,-59 27,-22 53,-41 57,-41 9,0 496,593 504,613 4,12 -91,97 -109,97 -3,0 -88,-100 -188,-222 -100,-123 -184,-225 -186,-227 -12,-16 -2,38 58,309 37,168 68,315 68,327 1,15 -21,40 -73,82 l -74,60 -242,-297 z"
       id="path82"
       style="fill:#800000"
       inkscape:connector-curvature="0" />
    <path
       d="m 3855,1753 c -99,-196 -181,-360 -183,-363 -3,-8 258,-133 328,-156 36,-12 84,-19 140,-19 73,0 93,4 142,28 137,67 247,267 236,426 -9,118 -72,209 -206,295 -54,35 -264,146 -274,146 -2,0 -84,-161 -183,-357 z m 324,143 c 67,-34 107,-70 139,-125 23,-39 27,-57 27,-121 0,-66 -4,-82 -34,-138 -78,-144 -214,-189 -363,-121 -37,18 -68,36 -68,41 0,12 239,488 245,488 3,0 27,-11 54,-24 z"
       id="path84"
       style="fill:#800000"
       inkscape:connector-curvature="0" />
    <path
       d="m 8675,2061 c -33,-10 -77,-26 -97,-35 -70,-30 -258,-138 -254,-144 2,-4 88,-162 191,-352 103,-190 188,-346 190,-348 4,-4 222,115 282,155 144,95 213,235 184,375 -28,140 -131,288 -235,338 -67,32 -178,37 -261,11 z m 160,-155 c 145,-67 212,-252 140,-384 -16,-30 -45,-66 -64,-81 -36,-29 -121,-75 -126,-69 -11,14 -255,472 -255,479 0,5 32,25 72,44 90,43 158,47 233,11 z"
       id="path86"
       style="fill:#800000"
       inkscape:connector-curvature="0" />
    <path
       d="m 9420,1789 c -30,-22 -56,-44 -58,-49 -3,-9 75,-130 84,-130 11,0 124,85 124,93 0,12 -81,127 -89,126 -3,0 -31,-19 -61,-40 z"
       id="path88"
       style="fill:#800000"
       inkscape:connector-curvature="0" />
    <path
       d="m 4965,1668 c -3,-13 -50,-187 -104,-388 -54,-201 -97,-366 -97,-367 2,-3 459,-124 461,-121 1,2 9,29 17,60 l 16,57 -31,10 c -18,5 -87,24 -155,42 -97,26 -122,35 -117,47 3,9 15,54 27,101 11,47 24,90 28,94 4,5 68,-7 141,-27 73,-19 135,-34 137,-32 9,10 30,111 24,117 -4,3 -64,21 -134,39 -94,24 -128,37 -128,48 0,13 39,172 44,179 1,1 69,-16 151,-37 82,-22 150,-38 153,-36 7,7 31,110 27,115 -5,4 -434,121 -447,121 -4,0 -10,-10 -13,-22 z"
       id="path90"
       style="fill:#800000"
       inkscape:connector-curvature="0" />
    <path
       d="m 7345,1581 -70,-16 -68,-424 c -38,-233 -66,-425 -64,-427 3,-4 148,25 155,31 1,1 9,44 18,96 8,51 16,95 18,96 2,2 66,17 142,34 76,16 147,32 156,35 13,4 31,-16 72,-80 l 54,-84 81,17 c 45,10 83,20 85,22 3,2 -101,164 -230,359 -186,282 -239,355 -257,357 -12,0 -53,-6 -92,-16 z m 150,-317 84,-139 -27,-7 c -57,-16 -193,-41 -197,-36 -3,2 4,74 15,159 11,85 20,161 20,169 0,23 15,2 105,-146 z"
       id="path92"
       style="fill:#800000"
       inkscape:connector-curvature="0" />
    <path
       d="m 5790,1503 c -1,-4 -11,-186 -24,-403 -13,-217 -22,-396 -21,-398 9,-10 297,-19 361,-11 232,29 344,163 344,413 0,249 -146,372 -465,391 -55,3 -121,8 -147,11 -27,2 -48,1 -48,-3 z m 349,-167 c 56,-29 96,-72 124,-135 29,-65 21,-190 -16,-254 -34,-57 -87,-102 -146,-122 -47,-16 -157,-20 -178,-7 -10,6 -9,58 2,242 8,129 15,253 15,274 l 0,39 75,-6 c 50,-5 92,-15 124,-31 z"
       id="path94"
       style="fill:#800000"
       inkscape:connector-curvature="0" />
    <path
       d="m 8195,1152 c -38,-14 -72,-27 -74,-29 -4,-3 7,-40 40,-130 l 8,-23 73,27 c 40,14 74,27 76,28 1,1 -10,36 -25,77 l -28,75 -70,-25 z"
       id="path96"
       style="fill:#800000"
       inkscape:connector-curvature="0" />
  </g>
</svg>
