<?xml version="1.0" standalone="no"?>
<!DOCTYPE svg PUBLIC "-//W3C//DTD SVG 20010904//EN"
 "http://www.w3.org/TR/2001/REC-SVG-20010904/DTD/svg10.dtd">
<svg version="1.0" xmlns="http://www.w3.org/2000/svg"
 width="704.000000pt" height="704.000000pt" viewBox="0 0 704.000000 704.000000"
 preserveAspectRatio="xMidYMid meet">
<metadata>
Created by potrace 1.13, written by Peter Selinger 2001-2015
</metadata>
<g transform="translate(0.000000,704.000000) scale(0.100000,-0.100000)"
fill="#000000" stroke="none">
<path d="M3300 7034 c-152 -14 -339 -38 -430 -55 -569 -109 -1097 -352 -1548
-712 -163 -129 -420 -386 -549 -549 -415 -520 -667 -1122 -750 -1798 -24 -202
-24 -611 0 -805 102 -795 431 -1487 972 -2044 581 -598 1313 -955 2160 -1053
143 -17 588 -16 730 0 849 99 1578 454 2158 1052 558 574 884 1269 979 2085
16 142 17 587 0 730 -98 847 -455 1579 -1053 2160 -555 540 -1264 876 -2039
970 -128 16 -533 28 -630 19z m620 -149 c1052 -125 1978 -731 2522 -1647 232
-391 385 -846 445 -1319 23 -186 23 -612 0 -798 -124 -976 -630 -1821 -1427
-2379 -452 -318 -974 -517 -1541 -589 -186 -23 -612 -23 -798 0 -1029 130
-1918 693 -2468 1560 -269 426 -437 901 -499 1417 -22 176 -25 571 -6 735 91
802 422 1495 977 2050 554 554 1286 902 2045 974 63 6 133 13 155 15 85 9 466
-4 595 -19z"/>
<path d="M2685 6109 c-22 -5 -92 -34 -156 -65 l-117 -55 -37 26 c-100 68 -354
97 -444 51 -16 -9 -42 -32 -57 -52 -23 -30 -28 -48 -32 -113 l-4 -77 -57 -21
c-31 -12 -112 -38 -181 -58 -152 -45 -275 -97 -355 -150 -227 -151 -358 -381
-411 -720 -43 -282 22 -565 189 -815 57 -87 90 -129 204 -261 l82 -95 -19
-120 c-10 -65 -31 -213 -46 -329 -14 -115 -29 -215 -33 -222 -4 -8 -26 1 -69
31 -98 69 -168 91 -287 91 -88 0 -107 -3 -158 -27 -74 -35 -166 -126 -205
-204 -54 -108 -76 -197 -77 -314 0 -110 13 -166 60 -260 77 -153 256 -283 470
-342 114 -31 362 -31 480 1 207 55 339 172 418 371 14 36 49 144 77 240 28 96
54 178 58 182 4 3 104 36 224 72 236 72 366 119 449 163 30 15 57 29 61 31 4
2 12 -16 18 -40 44 -162 198 -352 348 -431 112 -59 170 -72 317 -71 111 1 143
5 218 28 314 95 536 287 680 588 47 99 29 92 162 69 241 -42 480 45 560 204
11 22 21 42 22 44 2 2 53 -45 116 -105 165 -160 362 -306 526 -388 88 -45 254
-95 339 -102 254 -21 460 109 587 370 96 196 144 448 132 690 -13 254 -85 403
-247 511 -103 68 -171 88 -305 89 -128 1 -217 -22 -325 -82 -82 -45 -189 -150
-225 -222 l-28 -55 -436 442 c-461 468 -501 502 -649 564 -123 51 -221 77
-509 134 -150 30 -300 64 -333 75 -93 31 -278 121 -408 199 -117 69 -252 172
-252 192 0 5 18 40 40 76 78 129 49 183 -130 245 -65 22 -189 31 -245 17z
m198 -149 l65 -20 -34 -66 c-41 -79 -43 -122 -8 -181 47 -80 239 -215 470
-331 230 -115 278 -129 674 -207 272 -53 406 -96 530 -173 37 -22 266 -245
695 -678 573 -577 646 -647 698 -670 73 -33 130 -29 182 10 47 36 86 115 92
188 14 147 -127 270 -268 234 -52 -14 -123 -71 -135 -109 -5 -17 -14 -11 -65
39 -32 32 -59 63 -59 70 0 33 67 138 118 186 191 176 490 180 645 8 58 -65 83
-120 102 -226 40 -228 -5 -543 -105 -744 -67 -133 -180 -241 -283 -272 -70
-21 -211 -16 -297 11 -235 72 -534 288 -801 578 -195 213 -285 283 -391 304
-46 9 -65 8 -114 -6 -50 -14 -69 -27 -124 -83 -76 -78 -121 -162 -201 -377
-128 -347 -260 -535 -457 -650 -249 -146 -478 -173 -665 -79 -110 56 -236 214
-283 354 -27 81 -25 217 5 293 26 67 104 156 186 212 l54 38 93 -6 c138 -9
275 -54 322 -106 l19 -21 -44 0 c-135 -1 -283 -54 -319 -113 -94 -154 143
-310 332 -218 60 28 109 79 147 151 102 190 3 342 -276 422 -66 19 -101 23
-223 22 -253 0 -454 -50 -691 -170 -81 -41 -172 -91 -201 -111 -76 -51 -181
-157 -237 -238 -110 -161 -161 -278 -245 -565 -31 -106 -72 -225 -90 -264 -61
-131 -159 -212 -306 -252 -102 -28 -321 -26 -425 4 -284 82 -444 288 -407 526
18 117 57 202 121 267 41 40 69 59 103 68 104 29 232 -11 339 -106 l57 -50
-18 -54 c-10 -29 -27 -59 -37 -67 -26 -20 -107 -9 -184 23 -90 38 -122 42
-148 16 -46 -46 -22 -93 72 -136 159 -72 276 -72 357 1 69 63 109 200 155 539
56 416 66 479 100 612 60 238 120 326 305 447 52 35 142 94 200 132 137 89
289 238 328 320 23 51 27 72 27 149 0 80 -3 96 -29 142 -85 153 -307 212 -422
111 -42 -37 -62 -73 -73 -135 -25 -134 49 -276 178 -342 l54 -28 -59 -44 c-33
-25 -108 -76 -169 -114 -249 -156 -329 -233 -400 -379 -24 -50 -46 -106 -50
-123 -4 -18 -10 -35 -15 -38 -12 -7 -150 159 -212 255 -69 105 -116 208 -145
319 -35 131 -37 340 -6 481 46 206 108 327 227 445 116 115 229 170 526 255
100 29 194 75 219 107 17 21 21 40 21 104 0 90 7 99 83 99 66 0 195 -27 227
-47 15 -10 51 -46 80 -81 28 -34 63 -65 76 -68 51 -13 102 54 75 98 -15 24
-21 18 62 63 125 69 191 79 300 45z m-752 -994 c64 -43 88 -134 55 -209 -26
-57 -27 -58 -79 -42 -94 28 -139 72 -158 153 -11 50 6 110 34 122 36 16 104 4
148 -24z m3936 -1046 c39 -23 50 -58 34 -110 -17 -57 -35 -68 -76 -46 -18 10
-45 30 -59 45 l-26 27 21 40 c16 34 45 60 69 63 3 1 20 -8 37 -19z m-1338
-165 c27 -13 76 -50 110 -80 52 -48 61 -63 67 -102 13 -88 -52 -169 -169 -210
-40 -14 -79 -18 -172 -17 -66 1 -132 6 -147 10 l-27 9 28 80 c56 159 135 290
193 318 45 22 61 21 117 -8z m-1925 -222 c-56 -86 -94 -179 -94 -234 0 -38
-44 -90 -111 -131 -57 -34 -494 -188 -535 -188 -12 0 -8 15 21 68 61 112 143
211 227 273 89 66 287 170 403 210 103 37 113 37 89 2z"/>
<path d="M4735 3076 c-52 -22 -102 -88 -114 -148 -37 -185 -321 -1844 -321
-1876 0 -71 69 -129 141 -119 40 5 132 65 143 92 4 12 20 7 86 -26 156 -78
317 -89 484 -31 211 73 388 234 491 447 65 133 79 197 79 350 0 114 -4 139
-26 202 -82 230 -253 366 -478 380 -103 6 -182 -10 -316 -66 -52 -22 -94 -38
-94 -36 0 2 27 158 60 347 33 189 60 357 60 373 0 90 -106 150 -195 111z m512
-1062 c102 -50 163 -147 171 -270 6 -90 -10 -159 -56 -249 -141 -272 -478
-343 -609 -128 -73 120 -72 263 3 418 50 103 176 213 284 246 14 4 54 8 91 8
51 1 76 -5 116 -25z"/>
<path d="M2505 2335 c-22 -8 -54 -30 -71 -49 -60 -70 -61 -61 49 -692 54 -313
104 -580 111 -593 34 -72 141 -90 217 -36 48 34 60 55 282 478 99 190 147 273
151 260 3 -10 30 -166 62 -348 60 -355 68 -380 131 -410 17 -8 44 -15 60 -15
37 1 103 31 129 61 26 29 606 1128 623 1181 15 44 6 99 -21 133 -45 57 -160
52 -222 -10 -17 -17 -112 -184 -216 -382 -101 -194 -186 -350 -188 -348 -3 2
-31 155 -63 340 -33 185 -66 349 -74 365 -18 34 -59 68 -94 77 -38 9 -112 -15
-147 -48 -18 -17 -105 -174 -215 -383 -101 -195 -186 -352 -188 -350 -2 2 -32
164 -67 360 -69 391 -70 394 -143 414 -46 13 -57 12 -106 -5z"/>
</g>
</svg>
